<?xml version="1.0" encoding="UTF-8" standalone="no"?>
<svg
   height="16"
   viewBox="0 0 16 16"
   width="16"
   version="1.1"
   id="svg1"
   xml:space="preserve"
   xmlns="http://www.w3.org/2000/svg"
   xmlns:svg="http://www.w3.org/2000/svg"><defs
     id="defs1" /><path
     id="path1"
     d="M 2 1 A 1 1 0 0 0 1 2 L 1 14 A 1 1 0 0 0 2 15 L 14 15 A 1 1 0 0 0 15 14 L 15 2 A 1 1 0 0 0 14 1 L 2 1 z M 3 3 L 13 3 L 13 11 L 3 11 L 3 3 z "
     style="fill:#8da5f3;fill-opacity:1" /><path
     id="path1-6"
     d="M 4.0357143,5 A 0.28571425,0.2857143 0 0 0 3.75,5.2857143 V 8.7142856 A 0.28571425,0.2857143 0 0 0 4.0357143,9 H 7.4642851 A 0.28571425,0.2857143 0 0 0 7.75,8.7142856 V 5.2857143 A 0.28571425,0.2857143 0 0 0 7.4642851,5 Z M 4.3214285,5.5714285 H 7.1785716 V 7.857143 H 4.3214285 Z"
     style="fill:#e0e0e0;fill-opacity:1;stroke-width:0.285715" /><path
     id="path1-6-2"
     d="M 8.5357143,5 A 0.28571425,0.2857143 0 0 0 8.25,5.2857143 V 8.7142856 A 0.28571425,0.2857143 0 0 0 8.5357143,9 H 11.964285 A 0.28571425,0.2857143 0 0 0 12.25,8.7142856 V 5.2857143 A 0.28571425,0.2857143 0 0 0 11.964285,5 Z M 8.8214285,5.5714285 H 11.678572 V 7.857143 H 8.8214285 Z"
     style="fill:#e0e0e0;fill-opacity:1;stroke-width:0.285715" /><path
     id="path1-3"
     d="M 6.03125,6 V 6.2999999 H 5.7500001 V 6.6 h -0.5625 V 6.8999999 H 4.90625 V 7.2 H 4.625 v 0.3 h 2.25 V 6.8999999 H 6.59375 v -0.6 H 6.3124999 V 6 Z"
     style="fill:#e0e0e0;fill-opacity:1;stroke-width:0.290474" /><path
     id="path1-3-2"
     d="M 10.53125,6 V 6.2999999 H 10.25 V 6.6 H 9.6875001 V 6.8999999 H 9.40625 V 7.2 H 9.125 v 0.3 h 2.25 V 6.8999999 h -0.28125 v -0.6 H 10.8125 V 6 Z"
     style="fill:#e0e0e0;fill-opacity:1;stroke-width:0.290474" /></svg>
